<svg xmlns="http://www.w3.org/2000/svg" xmlns:xlink="http://www.w3.org/1999/xlink" version="1.1" x="0px" y="0px" viewBox="0 0 30 37.5" xml:space="preserve"><g transform="translate(-30 -320)"><path xmlns="http://www.w3.org/2000/svg" xmlns:xlink="http://www.w3.org/1999/xlink" d="M51.687,330.59l4.397-4.089l-4.397-4.09l-0.683,0.732L54.077,326H39.365c-2.958,0-5.365,2.468-5.365,5.5   s2.407,5.5,5.365,5.5h11.27c2.406,0,4.365,2.019,4.365,4.5s-1.959,4.5-4.365,4.5H34v1h16.635c2.958,0,5.365-2.468,5.365-5.5   s-2.407-5.5-5.365-5.5h-11.27c-2.406,0-4.365-2.019-4.365-4.5s1.959-4.5,4.365-4.5h14.714l-3.075,2.857L51.687,330.59z"/></g><text x="0" y="45" fill="#000000" font-size="5px" font-weight="bold" font-family="'Helvetica Neue', Helvetica, Arial-Unicode, Arial, Sans-serif">Created by Hea Poh Lin</text><text x="0" y="50" fill="#000000" font-size="5px" font-weight="bold" font-family="'Helvetica Neue', Helvetica, Arial-Unicode, Arial, Sans-serif">from the Noun Project</text></svg>